General
Complete name                    : The Boys Are Back.avi
Format                           : AVI
Format/Info                      : Audio Video Interleave
File size                        : 703 MiB
Duration                         : 1h 39mn
Overall bit rate                 : 985 Kbps

Video
ID                               : 0
Format                           : MPEG-4 Visual
Codec ID/Hint                    : XviD
Duration                         : 1h 39mn
Bit rate                         : 590 Kbps
Width                            : 718 pixels
Height                           : 436 pixels
Display aspect ratio             : 2.35:1
Frame rate                       : 25.000 fps
Resolution                       : 8 bits
Colorimetry                      : 4:2:0
Scan type                        : Progressive
Bits/(Pixel*Frame)               : 0.075
Stream size                      : 421 MiB (60%)
Writing library                  : XviD 1.1.2 (UTC 2006-11-01)

Audio
ID                               : 1
Format                           : AC-3
Format/Info                      : Audio Coding 3
Codec ID                         : 2000
Duration                         : 1h 39mn
Bit rate mode                    : Constant
Bit rate                         : 384 Kbps
Channel(s)                       : 6 channels
Channel positions                : Front: L C R, Side: L R, LFE
Sampling rate                    : 48.0 KHz
Stream size                      : 274 MiB (39%)
Alignment                        : Aligned on interleaves
Interleave, duration             : 32 ms (0.80 video frame)
Interleave, preload duration     : 512 ms

